<svg width="455" height="116" viewBox="0 0 455 116" fill="none" xmlns="http://www.w3.org/2000/svg">
<path d="M18.56 115.584C16.0853 115.584 13.7813 115.413 11.648 115.072C9.6 114.816 7.552 114.432 5.504 113.92V98.688C7.21067 99.1147 9.04533 99.4987 11.008 99.84C12.9707 100.267 14.976 100.48 17.024 100.48C20.9493 100.48 23.9787 99.7547 26.112 98.304C28.3307 96.9387 29.8667 94.6773 30.72 91.52L48.64 23.68H66.432L46.464 91.52C44.5867 97.92 42.2827 102.869 39.552 106.368C36.9067 109.867 33.8347 112.256 30.336 113.536C26.8373 114.901 22.912 115.584 18.56 115.584ZM19.968 91.52L0 23.68H18.176L36.736 91.52H19.968Z" fill="url(#paint0_linear_54_1828)"/>
<path d="M114.464 91.52C113.952 89.3013 113.525 87.04 113.184 84.736C112.928 82.432 112.8 80.1707 112.8 77.952V49.28C112.8 44.5013 111.648 41.1307 109.344 39.168C107.04 37.12 104.267 36.096 101.024 36.096C97.952 36.096 95.3067 36.9493 93.088 38.656C90.9547 40.2773 89.4613 42.9227 88.608 46.592L72.352 42.624C74.2293 35.8827 77.7707 30.7627 82.976 27.264C88.1813 23.7653 94.5387 22.016 102.048 22.016C110.667 22.016 117.451 24.32 122.4 28.928C127.349 33.4507 129.824 39.7227 129.824 47.744V76.416C129.824 81.4507 130.464 86.4853 131.744 91.52H114.464ZM91.296 93.184C84.896 93.184 79.9467 91.4347 76.448 87.936C73.0347 84.4373 71.328 79.9147 71.328 74.368C71.328 69.3333 72.992 64.896 76.32 61.056C79.7333 57.216 85.024 54.7413 92.192 53.632L117.28 49.408V60.672L98.208 64.64C94.5387 65.408 91.9787 66.56 90.528 68.096C89.0773 69.5467 88.352 71.168 88.352 72.96C88.352 74.752 88.9493 76.288 90.144 77.568C91.424 78.7627 93.3867 79.36 96.032 79.36C98.7627 79.36 101.408 78.7627 103.968 77.568C106.528 76.288 108.619 74.4533 110.24 72.064C111.947 69.5893 112.8 66.6453 112.8 63.232H117.152C117.152 69.376 116 74.7093 113.696 79.232C111.392 83.6693 108.277 87.1253 104.352 89.6C100.512 91.9893 96.16 93.184 91.296 93.184Z" fill="url(#paint1_linear_54_1828)"/>
<path d="M187.283 91.52V52.352C187.283 47.3173 186.046 43.52 183.571 40.96C181.096 38.4 178.024 37.12 174.355 37.12C170.686 37.12 167.614 38.4 165.139 40.96C162.664 43.52 161.427 47.3173 161.427 52.352H157.715C157.715 45.952 158.696 40.4907 160.659 35.968C162.707 31.4453 165.48 27.9893 168.979 25.6C172.563 23.2107 176.702 22.016 181.395 22.016C185.832 22.016 189.758 23.1253 193.171 25.344C196.67 27.4773 199.4 30.5493 201.363 34.56C203.326 38.4853 204.307 43.264 204.307 48.896V91.52H187.283ZM144.403 91.52V0H161.427V91.52H144.403Z" fill="url(#paint2_linear_54_1828)"/>
<path d="M258.839 91.52C258.327 89.3013 257.9 87.04 257.559 84.736C257.303 82.432 257.175 80.1707 257.175 77.952V49.28C257.175 44.5013 256.023 41.1307 253.719 39.168C251.415 37.12 248.642 36.096 245.399 36.096C242.327 36.096 239.682 36.9493 237.463 38.656C235.33 40.2773 233.836 42.9227 232.983 46.592L216.727 42.624C218.604 35.8827 222.146 30.7627 227.351 27.264C232.556 23.7653 238.914 22.016 246.423 22.016C255.042 22.016 261.826 24.32 266.775 28.928C271.724 33.4507 274.199 39.7227 274.199 47.744V76.416C274.199 81.4507 274.839 86.4853 276.119 91.52H258.839ZM235.671 93.184C229.271 93.184 224.322 91.4347 220.823 87.936C217.41 84.4373 215.703 79.9147 215.703 74.368C215.703 69.3333 217.367 64.896 220.695 61.056C224.108 57.216 229.399 54.7413 236.567 53.632L261.655 49.408V60.672L242.583 64.64C238.914 65.408 236.354 66.56 234.903 68.096C233.452 69.5467 232.727 71.168 232.727 72.96C232.727 74.752 233.324 76.288 234.519 77.568C235.799 78.7627 237.762 79.36 240.407 79.36C243.138 79.36 245.783 78.7627 248.343 77.568C250.903 76.288 252.994 74.4533 254.615 72.064C256.322 69.5893 257.175 66.6453 257.175 63.232H261.527C261.527 69.376 260.375 74.7093 258.071 79.232C255.767 83.6693 252.652 87.1253 248.727 89.6C244.887 91.9893 240.535 93.184 235.671 93.184Z" fill="url(#paint3_linear_54_1828)"/>
<path d="M300.81 115.584C298.335 115.584 296.031 115.413 293.898 115.072C291.85 114.816 289.802 114.432 287.754 113.92V98.688C289.461 99.1147 291.295 99.4987 293.258 99.84C295.221 100.267 297.226 100.48 299.274 100.48C303.199 100.48 306.229 99.7547 308.362 98.304C310.581 96.9387 312.117 94.6773 312.97 91.52L330.89 23.68H348.682L328.714 91.52C326.837 97.92 324.533 102.869 321.802 106.368C319.157 109.867 316.085 112.256 312.586 113.536C309.087 114.901 305.162 115.584 300.81 115.584ZM302.218 91.52L282.25 23.68H300.426L318.986 91.52H302.218Z" fill="url(#paint4_linear_54_1828)"/>
<path d="M368.81 115.584C366.335 115.584 364.031 115.413 361.898 115.072C359.85 114.816 357.802 114.432 355.754 113.92V98.688C357.461 99.1147 359.295 99.4987 361.258 99.84C363.221 100.267 365.226 100.48 367.274 100.48C371.199 100.48 374.229 99.7547 376.362 98.304C378.581 96.9387 380.117 94.6773 380.97 91.52L398.89 23.68H416.682L396.714 91.52C394.837 97.92 392.533 102.869 389.802 106.368C387.157 109.867 384.085 112.256 380.586 113.536C377.087 114.901 373.162 115.584 368.81 115.584ZM370.218 91.52L350.25 23.68H368.426L386.986 91.52H370.218Z" fill="url(#paint5_linear_54_1828)"/>
<path d="M425.93 59.904L429.386 27.264L434.506 3.2H454.474L449.354 27.264L438.986 59.904H425.93ZM426.954 93.312C423.711 93.312 421.151 92.416 419.274 90.624C417.397 88.7467 416.458 86.272 416.458 83.2C416.458 79.4453 417.61 76.4587 419.914 74.24C422.303 72.0213 425.162 70.912 428.49 70.912C431.818 70.912 434.421 71.8507 436.298 73.728C438.175 75.6053 439.114 78.08 439.114 81.152C439.114 84.8213 437.919 87.7653 435.53 89.984C433.226 92.2027 430.367 93.312 426.954 93.312Z" fill="url(#paint6_linear_54_1828)"/>
<defs>
<linearGradient id="paint0_linear_54_1828" x1="-192.141" y1="155.227" x2="-90.3115" y2="-122.313" gradientUnits="userSpaceOnUse">
<stop offset="0.0032" stop-color="#2E0C7D"/>
<stop offset="1" stop-color="#8E2CF1"/>
</linearGradient>
<linearGradient id="paint1_linear_54_1828" x1="-192.141" y1="155.227" x2="-90.3115" y2="-122.313" gradientUnits="userSpaceOnUse">
<stop offset="0.0032" stop-color="#2E0C7D"/>
<stop offset="1" stop-color="#8E2CF1"/>
</linearGradient>
<linearGradient id="paint2_linear_54_1828" x1="-192.141" y1="155.227" x2="-90.3115" y2="-122.313" gradientUnits="userSpaceOnUse">
<stop offset="0.0032" stop-color="#2E0C7D"/>
<stop offset="1" stop-color="#8E2CF1"/>
</linearGradient>
<linearGradient id="paint3_linear_54_1828" x1="-192.141" y1="155.227" x2="-90.3115" y2="-122.313" gradientUnits="userSpaceOnUse">
<stop offset="0.0032" stop-color="#2E0C7D"/>
<stop offset="1" stop-color="#8E2CF1"/>
</linearGradient>
<linearGradient id="paint4_linear_54_1828" x1="-192.141" y1="155.227" x2="-90.3115" y2="-122.313" gradientUnits="userSpaceOnUse">
<stop offset="0.0032" stop-color="#2E0C7D"/>
<stop offset="1" stop-color="#8E2CF1"/>
</linearGradient>
<linearGradient id="paint5_linear_54_1828" x1="-192.141" y1="155.227" x2="-90.3115" y2="-122.313" gradientUnits="userSpaceOnUse">
<stop offset="0.0032" stop-color="#2E0C7D"/>
<stop offset="1" stop-color="#8E2CF1"/>
</linearGradient>
<linearGradient id="paint6_linear_54_1828" x1="-192.141" y1="155.227" x2="-90.3115" y2="-122.313" gradientUnits="userSpaceOnUse">
<stop offset="0.0032" stop-color="#2E0C7D"/>
<stop offset="1" stop-color="#8E2CF1"/>
</linearGradient>
</defs>
</svg>
